<?xml version="1.0" standalone="no"?>
<!DOCTYPE svg PUBLIC "-//W3C//DTD SVG 20010904//EN"
 "http://www.w3.org/TR/2001/REC-SVG-20010904/DTD/svg10.dtd">
<svg version="1.0" xmlns="http://www.w3.org/2000/svg"
 width="260.000000pt" height="260.000000pt" viewBox="0 0 260.000000 260.000000"
 preserveAspectRatio="xMidYMid meet">
<metadata>
Created by potrace 1.14, written by Peter Selinger 2001-2017
</metadata>
<g transform="translate(0.000000,260.000000) scale(0.100000,-0.100000)"
fill="#000000" stroke="none">
<path d="M1221 2294 c-49 -8 -82 -20 -100 -36 -64 -57 -90 -90 -96 -128 -4
-21 -15 -49 -26 -61 -19 -22 -27 -89 -11 -89 12 0 29 -40 38 -84 3 -20 15 -41
25 -47 11 -5 19 -16 19 -24 0 -8 11 -22 25 -31 13 -9 27 -24 30 -34 3 -11 15
-22 25 -25 10 -3 22 -14 25 -24 3 -10 17 -23 30 -29 20 -9 25 -19 25 -51 0
-23 -6 -44 -16 -52 -14 -11 -20 -9 -44 20 -26 33 -29 34 -78 27 -45 -6 -59
-14 -112 -66 -33 -32 -60 -64 -60 -71 0 -6 -11 -24 -25 -41 -18 -22 -25 -41
-25 -73 0 -34 -5 -47 -22 -59 -20 -14 -23 -27 -26 -94 -4 -98 -7 -113 -32
-142 -12 -14 -20 -37 -20 -60 0 -23 -9 -48 -25 -70 -14 -19 -25 -42 -25 -52 0
-16 -27 -50 -86 -110 l-28 -27 -237 -3 c-230 -3 -238 -4 -261 -25 -14 -13 -29
-23 -35 -23 -18 0 -34 -54 -29 -96 2 -21 5 -47 5 -57 1 -19 125 -147 143 -147
6 0 25 -10 42 -23 17 -13 50 -29 74 -37 23 -7 47 -19 53 -27 6 -7 27 -13 46
-13 19 0 56 -11 82 -23 56 -29 239 -44 451 -38 172 4 544 4 725 0 171 -5 405
9 425 25 26 21 70 36 104 36 20 0 40 8 51 20 9 10 20 19 24 18 15 -3 68 17 99
39 19 12 39 23 43 23 5 0 38 29 74 64 62 60 65 65 70 122 6 61 -6 114 -26 114
-6 0 -24 11 -41 25 l-30 25 -231 0 -232 0 -28 28 c-55 56 -75 81 -85 112 -6
17 -20 43 -32 57 -11 14 -20 40 -20 57 0 41 -10 77 -20 71 -15 -9 -30 58 -30
132 0 66 -3 75 -25 95 -20 17 -25 31 -25 68 0 34 -5 52 -20 65 -11 10 -22 27
-26 38 -4 11 -33 47 -65 78 -52 51 -66 59 -111 65 -49 7 -52 6 -78 -27 -24
-29 -30 -31 -44 -20 -30 25 -12 111 24 111 5 0 11 9 15 19 3 11 14 23 24 26
10 3 23 17 29 30 6 14 18 25 26 25 7 0 19 13 26 29 6 16 18 32 25 35 7 2 16
23 20 45 3 22 15 50 26 62 23 27 25 82 3 104 -9 9 -21 36 -25 61 -7 36 -20 55
-65 99 -47 44 -66 56 -108 64 -96 18 -111 18 -185 5z m161 -122 c89 -70 98
-85 98 -155 0 -58 -3 -69 -27 -94 -16 -16 -54 -57 -85 -91 -32 -34 -61 -62
-67 -62 -11 0 -121 113 -135 138 -5 9 -18 23 -28 30 -14 10 -18 26 -18 74 0
67 16 94 92 156 55 43 119 45 170 4z m-205 -659 c4 -11 -3 -23 -20 -37 -18
-14 -27 -31 -27 -49 0 -16 -10 -37 -23 -50 -13 -12 -27 -39 -30 -59 -3 -20
-15 -49 -26 -65 -14 -19 -23 -51 -27 -103 -4 -41 -13 -82 -21 -91 -25 -29 -28
-136 -5 -229 11 -47 23 -110 26 -139 3 -34 11 -58 21 -63 25 -15 38 -47 24
-64 -17 -21 -32 -18 -74 16 -21 16 -45 30 -55 30 -9 0 -25 9 -34 19 -10 10
-37 24 -61 30 -26 6 -52 21 -64 37 -25 32 -26 47 -5 65 36 30 84 117 84 153 0
24 7 43 22 58 16 16 24 40 29 88 4 36 17 85 28 110 11 25 21 63 21 85 0 22 7
51 15 65 8 14 23 44 35 68 27 58 109 142 138 142 12 0 25 -7 29 -17z m350 -35
c28 -29 56 -68 62 -87 6 -19 18 -43 27 -52 9 -10 19 -46 24 -81 4 -35 17 -83
29 -108 12 -27 21 -66 21 -96 0 -40 5 -57 25 -78 17 -18 25 -38 25 -63 0 -36
60 -143 80 -143 5 0 13 -11 16 -26 9 -34 -27 -71 -82 -85 -24 -6 -50 -20 -60
-30 -9 -10 -25 -19 -34 -19 -10 0 -34 -13 -55 -30 -42 -34 -57 -37 -74 -16
-14 17 -1 49 25 64 12 6 19 31 24 78 4 38 15 98 25 134 20 76 17 190 -7 218
-9 10 -18 47 -21 91 -4 52 -12 83 -26 102 -11 14 -23 44 -27 65 -4 22 -18 49
-30 61 -14 13 -24 34 -24 50 0 18 -9 35 -27 49 -17 14 -24 26 -20 37 12 32 51
19 104 -35z m-194 -38 c5 -19 17 -44 28 -56 10 -11 19 -33 19 -48 0 -16 10
-36 25 -50 20 -18 25 -33 25 -69 0 -34 6 -53 25 -75 25 -29 25 -33 25 -202 0
-155 -2 -174 -19 -197 -11 -13 -23 -45 -27 -71 -3 -26 -15 -56 -25 -67 -10
-11 -34 -37 -53 -57 -36 -41 -78 -51 -94 -22 -5 8 -27 34 -49 57 -30 32 -41
53 -46 86 -3 24 -15 57 -26 72 -19 26 -21 42 -21 200 0 168 0 172 25 201 19
22 25 41 25 75 0 36 5 51 25 69 14 13 25 34 25 47 0 13 9 35 19 49 11 13 23
38 27 54 10 41 13 46 37 42 14 -2 24 -14 30 -38z m-899 -799 c13 -12 27 -34
30 -47 4 -14 16 -26 31 -30 38 -9 94 4 108 26 14 24 65 27 73 5 3 -8 25 -20
48 -27 22 -6 52 -19 66 -28 14 -9 40 -22 58 -28 18 -6 45 -20 59 -32 14 -11
31 -20 38 -20 7 0 23 -9 37 -19 13 -11 36 -23 51 -26 37 -10 53 -31 37 -50
-10 -12 -45 -15 -199 -15 -177 1 -188 2 -236 25 -33 16 -67 25 -101 25 -37 0
-58 6 -83 24 -19 14 -47 28 -63 32 -17 3 -46 17 -65 30 -20 13 -40 24 -45 24
-9 0 -30 15 -85 61 -23 18 -14 37 35 69 43 29 52 31 114 28 53 -3 72 -8 92
-27z m1945 -4 c65 -43 53 -67 -68 -131 -20 -10 -43 -24 -51 -31 -8 -7 -30 -16
-49 -20 -18 -4 -42 -16 -53 -27 -15 -15 -40 -23 -92 -28 -41 -4 -88 -16 -112
-29 -38 -20 -53 -21 -230 -19 l-189 3 0 24 c0 20 8 27 43 39 23 7 42 18 42 22
0 5 18 15 40 21 22 7 47 20 56 31 10 10 25 18 34 18 10 0 34 11 54 25 20 14
44 25 52 25 21 0 57 20 67 36 12 21 57 17 76 -7 11 -14 33 -23 62 -26 50 -6
56 -2 90 55 25 42 50 52 125 49 47 -2 71 -9 103 -30z"/>
</g>
</svg>
